<svg width="20" height="20" viewBox="0 0 20 20" color="transparent" xmlns="http://www.w3.org/2000/svg">
	<g clip-path="url(#clip0_4_11)">
		<path
			d="M7.97497 14.0591L7.97493 14.0592L3.7999 16.9995L3.79988 16.9995C3.79037 17.0063 3.78437 17.0083 3.78204 17.009C3.77955 17.0098 3.77757 17.01 3.77545 17.0099C3.7705 17.0097 3.76034 17.0074 3.74891 16.999C3.73749 16.9907 3.7323 16.9816 3.73062 16.9769C3.72991 16.9749 3.72951 16.973 3.72946 16.9704C3.72942 16.9679 3.72962 16.9616 3.73314 16.9506C3.73315 16.9506 3.73315 16.9506 3.73316 16.9505L5.2847 12.1084C5.51587 11.3873 5.26044 10.5993 4.65085 10.1508L0.61775 7.18284C0.617743 7.18284 0.617737 7.18283 0.61773 7.18283C0.60822 7.17582 0.604314 7.17073 0.602941 7.16876C0.601469 7.16664 0.600674 7.16486 0.600097 7.16285C0.598739 7.15812 0.597654 7.14767 0.602135 7.13402C0.606616 7.12037 0.613685 7.1126 0.617577 7.1096C0.619232 7.10832 0.620926 7.10736 0.623363 7.10653C0.625639 7.10575 0.631804 7.10397 0.643625 7.10397H5.62951C6.38669 7.10397 7.05907 6.62042 7.30036 5.90288L7.30038 5.90282L8.94857 0.999527L8.94859 0.999467C8.95229 0.988471 8.95588 0.983251 8.95735 0.98132C8.95893 0.979256 8.9604 0.977925 8.96216 0.976737C8.96627 0.973962 8.97578 0.969757 8.98992 0.969757C9.00406 0.969757 9.01356 0.973962 9.01767 0.976737C9.01943 0.977925 9.02091 0.979256 9.02248 0.98132C9.02395 0.983251 9.02755 0.988471 9.03124 0.999467L9.03126 0.999521L10.6795 5.90302L10.6795 5.90308C10.9208 6.62061 11.5932 7.10416 12.3503 7.10416H17.3362C17.348 7.10416 17.3542 7.10595 17.3565 7.10672C17.3589 7.10756 17.3606 7.10852 17.3623 7.1098C17.3661 7.11279 17.3732 7.12057 17.3777 7.13422C17.3822 7.14787 17.3811 7.15832 17.3797 7.16305C17.3795 7.16395 17.3792 7.16481 17.3788 7.16568C17.3783 7.16673 17.3777 7.16779 17.3769 7.16896C17.3755 7.17093 17.3716 7.17603 17.3621 7.18304L13.329 10.1508L13.5955 10.5131L13.329 10.1508C12.7192 10.5996 12.464 11.3876 12.6951 12.1085L14.2467 16.9505C14.2502 16.9616 14.2504 16.9679 14.2504 16.9704C14.2503 16.973 14.2499 16.9749 14.2492 16.9769C14.2475 16.9816 14.2423 16.9907 14.2309 16.999C14.2195 17.0074 14.2093 17.0097 14.2044 17.0099C14.2023 17.01 14.2003 17.0098 14.1978 17.009C14.1955 17.0083 14.1895 17.0063 14.18 16.9995L14.1799 16.9995L10.0049 14.0592L10.0049 14.0591C9.39616 13.6305 8.58368 13.6305 7.97497 14.0591Z"
			fill="currentColor" stroke="#1976d2" />
	</g>
	<defs>
		<clipPath id="clip0_4_11">
			<rect width="20" height="20" />
		</clipPath>
	</defs>
</svg>
