<svg id="156989277" viewBox="0 0 100 106.362712501018" height="106.362712501018" width="100" style="width: 100px; height: 106.363px; position: absolute; top: 50%; left: 50%; transform: translate(-50%, -50%) scale(1.77694); z-index: 0; cursor: pointer; overflow: visible;"><defs id="SvgjsDefs3914"></defs><g id="SvgjsG3915" featurekey="aMgJeN-0" transform="matrix(0.4643094768326585,0,0,0.4643094768326585,26.45440567868004,-4.863166822517514)" fill="#ffffff"><path xmlns="http://www.w3.org/2000/svg" d="M72.5,59.6c0.8,1.7,1.6,3.4,2.3,5.2c1.5,3.5,2.7,7.1,3.3,10.9c0.4,2.3,0.5,4.6-0.2,6.9c-0.7,2.4-2.5,3.7-5,3.7  c-2.3,0-4.3-0.8-6.3-1.8c-1.7-0.9-3.4-2-5.1-3.1c-0.7-0.5-1.3-0.6-2.2-0.3c-2.7,1-5.7-1.7-5.3-4.5c0.2-1.2,0.1-1.4-1-2.2  c-0.1,0.2-0.3,0.4-0.4,0.6c-2.4,3.5-5,6.9-8,9.9c-1.9,1.8-3.9,3.6-6.3,4.7c-1.2,0.5-2.4,0.9-3.7,0.8c-2-0.1-3.3-1.3-4.1-2.9  c-0.9-1.7-1.2-3.6-1.4-5.5c-0.4-5.3,0.4-10.4,1.6-15.5c0.1-0.4,0.2-0.8,0.3-1.3c-0.2,0-0.4-0.1-0.6-0.1c-4.7-0.2-9.4-0.8-14-2.1  c-2.1-0.6-4.1-1.4-5.9-2.7c-0.5-0.4-1-0.8-1.4-1.2c-1.7-1.9-1.9-4-0.7-6.2c1.1-1.9,2.7-3.3,4.5-4.5c1.7-1.1,3.5-2.1,5.3-3.1  c0.4-0.2,0.5-0.4,0.6-0.9c0.1-1.7,0.9-2.9,2.5-3.6c1.6-0.7,3.1-0.5,4.4,0.6c0.5,0.4,0.9,0.5,1.5,0.3c0.3-0.2,0.7-0.3,1.1-0.3  c0.4-0.1,0.5-0.3,0.3-0.7c-1.6-3.2-3-6.5-4.1-10c-0.9-2.8-1.6-5.7-1.7-8.7c0-1.3,0.1-2.6,0.5-3.8c0.8-2.7,3.1-4.1,6-3.7  c3,0.4,5.6,1.8,8.2,3.3c3.7,2.3,6.9,5.1,10.1,8c0.2,0.2,0.4,0.4,0.6,0.6c0.9-1.2,1.7-2.4,2.6-3.6c2.3-3.1,4.8-6,7.7-8.5  c1.7-1.4,3.4-2.7,5.5-3.4c0.9-0.3,1.8-0.5,2.7-0.4c2.6,0.1,3.9,1.9,4.7,4.1c0.7,2,0.9,4,0.9,6.1c0,1.6-0.1,3.2-0.2,4.7  c0,0.2,0.2,0.5,0.4,0.6c1,0.6,1.6,1.5,1.9,2.6c0.6,2.2-0.8,4.5-3,5.1c-0.5,0.1-0.8,0.3-0.8,0.8c0,0.2-0.1,0.4-0.2,0.6  c-0.2,0.6-0.1,0.6,0.5,0.6c4,0.2,7.9,0.6,11.8,1.5c2.7,0.6,5.3,1.5,7.7,3c1.3,0.8,2.4,1.8,3,3.2c0.6,1.5,0.5,2.9-0.3,4.3  c-1,1.8-2.4,3.2-4,4.4c-3.2,2.4-6.8,4.1-10.6,5.5C76.5,58.2,74.5,58.9,72.5,59.6z M24.6,20.3c0.1,1.7,0.4,3.3,0.9,4.9  c1.4,5,3.6,9.7,6,14.4c0.2,0.4,0.5,0.4,0.9,0.3c2.8-0.7,5.7-1.3,8.5-2c0.3-0.1,0.6-0.3,0.7-0.6c1.5-2.7,3-5.4,4.6-8.1  c0.2-0.4,0.2-0.6-0.1-0.9c-2-1.9-3.9-3.8-5.9-5.6c-2.4-2.1-4.8-4-7.7-5.5c-1.4-0.7-2.7-1.3-4.3-1.4c-1.5-0.1-2.6,0.6-3.1,1.9  C24.8,18.6,24.7,19.4,24.6,20.3z M71.1,38.5c-0.3,0-0.8,0-1.2,0c-0.4,0-0.5,0.2-0.7,0.5c-1,3-1.9,6-2.9,9c-0.1,0.4-0.1,0.7,0.1,1.1  c1.4,2.4,2.9,4.8,4.3,7.2c0.3,0.5,0.5,0.6,1,0.4c3-1,6-1.9,9-3c3-1.1,5.9-2.5,8.5-4.4c1-0.7,1.8-1.5,2.5-2.5  c0.8-1.4,0.7-2.7-0.4-3.8c-0.2-0.2-0.5-0.4-0.7-0.6c-1.3-0.9-2.8-1.5-4.3-1.9C81.2,39,76.2,38.7,71.1,38.5z M31.3,81.7  c0,0.6,0.1,1.6,0.2,2.7c0.2,1.1,0.5,2.2,1.2,3.1c0.7,0.9,1.6,1.2,2.6,1.1c1.3-0.1,2.4-0.8,3.4-1.5c2.1-1.5,3.9-3.5,5.5-5.4  c2.4-2.9,4.5-6,6.6-9.2c0.2-0.3,0.2-0.5,0-0.7c-2-2.3-4.1-4.6-6.1-6.8c-0.2-0.2-0.5-0.3-0.7-0.3c-3.1,0.1-6.1,0.2-9.2,0.3  c-0.5,0-0.8,0.1-0.9,0.6c-0.4,1.6-0.8,3.2-1.2,4.8C31.9,74,31.4,77.6,31.3,81.7z M76.6,80.4c-0.1-2-0.4-3.7-0.9-5.4  c-1.4-5-3.6-9.7-6-14.2c-0.2-0.3-0.4-0.3-0.7-0.3c-2.9,0.7-5.8,1.3-8.7,2c-0.2,0.1-0.5,0.2-0.6,0.4c-1.6,2.8-3.1,5.6-4.7,8.3  c-0.2,0.3-0.1,0.5,0.1,0.7c0.3,0.3,0.6,0.6,0.9,0.9c0.2,0.3,0.5,0.3,0.8,0.2c0.5-0.2,1-0.3,1.5-0.4c2.2-0.2,5,2.2,4.1,5.2  c-0.2,0.6,0,1,0.4,1.3c1.3,0.9,2.5,1.8,3.7,2.7c1.7,1.2,3.6,2.1,5.6,2.6c2.2,0.5,3.8-0.5,4.2-2.7C76.6,81.2,76.6,80.7,76.6,80.4z   M29.9,61.9c0.5,0,1.1,0,1.6,0c0.3,0,0.5-0.1,0.5-0.4c1-3.1,2-6.2,3-9.3c0.1-0.2,0-0.5-0.1-0.7c-1.5-2.6-3-5.1-4.5-7.7  c-0.2-0.3-0.3-0.3-0.6-0.3c-0.6,0.2-1.2,0.3-1.8,0.5c-0.5,0.1-0.9,0.4-0.9,1c-0.1,1-0.6,1.8-1.3,2.4c-1.7,1.4-3.9,1.4-5.6-0.1  c-0.2-0.2-0.4-0.4-0.8-0.2c-2.5,1.1-4.9,2.2-7.1,3.8c-1.1,0.8-2,1.6-2.7,2.8c-0.8,1.4-0.6,2.7,0.5,3.8c0.5,0.5,1.1,0.9,1.6,1.2  c1.6,0.9,3.4,1.4,5.3,1.8C21.3,61.5,25.6,61.7,29.9,61.9z M64.1,35.4C64.1,35.5,64.1,35.5,64.1,35.4c0.9,0.1,1.7,0,2.5,0.1  c0.3,0,0.5-0.1,0.5-0.4c0.1-0.6,0.3-1.1,0.5-1.7c0.1-0.4,0-0.6-0.3-0.9c-2.5-2-1.7-6.2,1.5-7.1c0.4-0.1,0.5-0.3,0.6-0.7  c0.3-2.7,0.6-5.4,0.3-8.1c-0.1-1.3-0.4-2.5-1.1-3.6c-0.7-1-1.7-1.5-2.9-1.3c-1,0.2-1.9,0.6-2.7,1.2c-1.7,1.1-3.1,2.5-4.4,3.9  c-3.2,3.4-5.8,7.2-8.3,11.1c-0.2,0.3-0.1,0.5,0.1,0.8c1.9,2.1,3.7,4.1,5.5,6.2c0.5,0.6,1,0.9,1.8,0.8C59.9,35.6,62,35.5,64.1,35.4z   M46.1,61.3c1.3-0.2,2.6-0.3,3.8-0.4c2.5-0.3,5-0.7,7.5-1c0.4,0,0.6-0.2,0.7-0.5c1.5-3.3,2.9-6.6,4.4-10c0.1-0.2,0-0.6-0.1-0.8  c-0.5-0.8-1-1.6-1.6-2.3c-1.5-2-3-4.1-4.4-6.1c-0.5-0.8-1.2-1.1-2.2-1c-1.7,0.2-3.5,0.4-5.2,0.6c-1.6,0.2-3.1,0.5-4.7,0.7  c-0.4,0.1-0.7,0.1-0.9,0.5c-1.5,3.3-3,6.7-4.4,10c-0.1,0.2-0.1,0.6,0.1,0.7c2.2,3.1,4.5,6.1,6.7,9.2C45.7,61.2,46,61.3,46.1,61.3z   M37.3,55.1c-0.8,2.3-1.5,4.5-2.3,6.9c2.4-0.1,4.7-0.2,7.1-0.3C40.4,59.4,38.9,57.3,37.3,55.1z M64,45.3c0.8-2.3,1.5-4.5,2.3-6.8  c-2.4,0.1-4.7,0.2-7.1,0.3C60.8,41,62.4,43.1,64,45.3z M52.7,69.4c1.1-2.1,2.2-4.1,3.4-6.1c-2.7,0.4-5.2,0.7-7.8,1  C49.7,66,51.2,67.7,52.7,69.4z M48.5,31c-1.1,2.1-2.2,4.1-3.4,6.1c2.7-0.3,5.2-0.7,7.8-1C51.5,34.4,50.1,32.7,48.5,31z M39.5,41.4  c-0.1,0-0.2,0-0.3,0c-1.8,0.4-3.6,0.8-5.4,1.2c-0.4,0.1-0.5,0.2-0.3,0.6c0.9,1.5,1.9,3.1,2.8,4.6c0.1,0.1,0.2,0.2,0.3,0.3  C37.6,45.9,38.5,43.7,39.5,41.4z M64.7,52.2c-1,2.3-2,4.6-3,6.9c2.1-0.5,4.2-0.9,6.3-1.4C66.9,55.8,65.8,54,64.7,52.2z"></path><path xmlns="http://www.w3.org/2000/svg" d="M43.7,50.2c0-3.8,3.1-6.9,6.9-6.9c3.9,0,7,3.1,7,7c0,3.9-3,6.9-6.9,6.9C46.4,57.2,43.7,53.9,43.7,50.2z"></path></g><g id="SvgjsG3916" featurekey="8L6ael-0" transform="matrix(3.2996463387940174,0,0,3.2996463387940174,-0.23966123993641475,40.5017698794239)" fill="#ffffff"><path d="M14.1 5.32 q0.22 0.3 0.08 0.66 l-5.48 13.54 q-0.08 0.2 -0.26 0.32 t-0.4 0.12 l-1.76 0 q-0.22 0 -0.4 -0.12 t-0.26 -0.32 l-5.48 -13.54 q-0.16 -0.34 0.06 -0.66 t0.58 -0.32 l6.68 0 q0.28 0 0.49 0.21 t0.21 0.51 l0 1.46 q0 0.3 -0.21 0.51 t-0.49 0.21 l-3.36 0 l3.06 7.7 l4.02 -10.16 q0.08 -0.2 0.26 -0.32 t0.4 -0.12 l1.68 0 q0.18 0 0.34 0.09 t0.24 0.23 z M30.288000000000004 5.380000000000001 q0.1 0.18 0.09 0.38 t-0.13 0.36 l-5.54 8 l0 5.14 q0 0.28 -0.21 0.49 t-0.49 0.21 l-1.54 0 q-0.3 0 -0.51 -0.21 t-0.21 -0.49 l0 -5.86 q0 -0.2 0.14 -0.4 l5.34 -7.7 q0.1 -0.14 0.25 -0.22 t0.33 -0.08 l1.86 0 q0.2 0 0.37 0.1 t0.25 0.28 z M21.868000000000002 9.78 q-0.08 0.18 -0.25 0.28 t-0.37 0.1 l-1.86 0 q-0.36 0 -0.6 -0.3 l-2.6 -3.74 q-0.1 -0.16 -0.11 -0.36 t0.07 -0.38 t0.25 -0.28 t0.37 -0.1 l1.88 0 q0.34 0 0.58 0.3 l2.6 3.74 q0.1 0.16 0.11 0.36 t-0.07 0.38 z"></path></g></svg>